<svg width="500" height="213" viewBox="0 0 500 213" xmlns="http://www.w3.org/2000/svg">
    <title>
        Artboard 1
    </title>
    <g fill="none" fill-rule="evenodd">
        <path d="M94.607 62.427l-48.914 62.409h48.914V62.427zm67.75 91.645h-33.734v54.818H94.607v-54.818H9.427v-25.02l89.116-118.35h30.08v114.134h33.734v29.236zM290.826 110.217a252.8 252.8 0 0 0-.14-8.574 221.584 221.584 0 0 0-.417-8.012l-68.317 62.69c5.763 17.056 16.265 25.582 31.507 25.582 11.895 0 21.097-5.714 27.607-17.148 6.506-11.43 9.76-29.61 9.76-54.538m-74.777 0c0 2.812.043 5.482.135 8.012.093 2.53.233 5.109.422 7.731l68.035-62.69c-5.578-16.116-16.08-24.176-31.507-24.176-11.899 0-21.053 5.763-27.466 17.29-6.413 11.525-9.62 29.473-9.62 53.833m-36.545 0c0-17.051 1.783-31.999 5.359-44.838 3.575-12.835 8.605-23.474 15.096-31.907 6.493-8.434 14.254-14.759 23.285-18.976 9.031-4.217 19.094-6.325 30.194-6.325 23.702 0 41.953 8.293 54.744 24.88 12.79 16.585 19.19 42.308 19.19 77.166 0 17.245-1.787 32.285-5.362 45.12-3.576 12.84-8.605 23.522-15.097 32.048-6.493 8.53-14.298 14.9-23.421 19.116-9.128 4.217-19.24 6.325-30.335 6.325-23.895 0-42.141-8.758-54.748-26.285-12.606-17.521-18.905-42.963-18.905-76.324M431.946 62.427l-48.915 62.409h48.915V62.427zm67.75 91.645H465.96v54.818h-34.015v-54.818h-85.18v-25.02l89.115-118.35h30.08v114.134h33.735v29.236z" fill="#0D47A1"/>
        <path d="M32.39 118.865h54.675V49.108l-54.674 69.757zm54.675 80.284v-54.82H1.885v-22.503L90.056 4.73h27.254v114.135h33.735v25.465h-33.735v54.819H87.065z" fill="#FFF"/>
        <path d="M36.265 116.98l48.914-62.41v62.41H36.265zm82.93-114.136h-30.08L0 121.196v25.02h85.18v54.818h34.015v-54.819h33.734V116.98h-33.734V2.844zM28.517 120.75H88.95V43.646l-6.739 8.598-48.915 62.409-4.779 6.097zM115.424 6.616V120.75h33.734v21.694h-33.734v54.819H88.95V142.445H3.771v-19.988L90.996 6.616h24.428z" fill="#0D47A1"/>
        <path d="M243.706 29.352c-12.577 0-22.373 6.143-29.114 18.258-6.54 11.755-9.857 30.176-9.857 54.75 0 2.86.046 5.579.137 8.081.093 2.545.236 5.168.425 7.798l.281 3.903 71.82-66.178-.403-1.167c-5.844-16.884-17.044-25.445-33.29-25.445zm-33.361 118.553l.392 1.163c6.024 17.826 17.225 26.864 33.294 26.864 12.568 0 22.407-6.09 29.246-18.1 6.64-11.667 10.007-30.33 10.007-55.471 0-2.966-.048-5.872-.143-8.638-.09-2.682-.231-5.4-.42-8.08l-.274-3.902-72.102 66.164zm33.383 55.18c-11.607 0-21.967-2.149-30.79-6.385-8.795-4.222-16.34-10.654-22.428-19.116-12.309-17.109-18.55-42.417-18.55-75.223 0-16.814 1.78-31.73 5.29-44.333 3.496-12.55 8.467-23.068 14.775-31.263 6.276-8.152 13.875-14.349 22.588-18.417C223.35 4.268 233.24 2.2 244.009 2.2c11.525 0 21.848 2.036 30.684 6.05 8.799 4 16.391 10.087 22.567 18.095 12.474 16.175 18.798 41.75 18.798 76.016 0 16.993-1.781 32.003-5.294 44.614-3.496 12.554-8.47 23.122-14.78 31.411-6.271 8.24-13.913 14.48-22.712 18.547-8.835 4.082-18.775 6.151-29.544 6.151z" fill="#FFF"/>
        <path d="M244.031 174.046c-15.242 0-25.745-8.525-31.508-25.581l68.317-62.69c.185 2.627.325 5.297.417 8.012.093 2.719.14 5.578.14 8.574 0 24.927-3.254 43.108-9.76 54.537-6.509 11.434-15.71 17.148-27.606 17.148zm-36.853-55.942c-.189-2.623-.33-5.201-.422-7.731-.092-2.53-.136-5.2-.136-8.012 0-24.36 3.207-42.309 9.62-53.834 6.413-11.526 15.567-17.29 27.466-17.29 15.427 0 25.929 8.06 31.507 24.177l-68.035 62.69zM244.009.314c-11.1 0-21.163 2.109-30.194 6.326-9.031 4.216-16.793 10.541-23.285 18.975-6.491 8.434-11.52 19.072-15.096 31.907-3.576 12.84-5.36 27.787-5.36 44.839 0 33.361 6.3 58.802 18.906 76.324 12.607 17.526 30.853 26.285 54.748 26.285 11.095 0 21.207-2.109 30.335-6.326 9.123-4.216 16.929-10.585 23.42-19.116 6.492-8.526 11.522-19.208 15.097-32.047 3.576-12.835 5.364-27.875 5.364-45.12 0-34.859-6.4-60.581-19.192-77.167C285.962 8.607 267.712.314 244.01.314zm.022 177.504c13.295 0 23.686-6.41 30.884-19.054 3.45-6.062 6.06-13.938 7.754-23.408 1.66-9.267 2.5-20.368 2.5-32.995 0-2.987-.048-5.915-.143-8.702a227.886 227.886 0 0 0-.423-8.148l-.549-7.804-5.763 5.29-68.317 62.689-1.81 1.66.787 2.326c3.1 9.173 7.606 16.207 13.394 20.907 5.916 4.803 13.213 7.239 21.686 7.239zM203.98 126.18l5.755-5.303 68.035-62.69 1.816-1.673-.808-2.334c-3.022-8.73-7.506-15.422-13.328-19.89-5.901-4.527-13.217-6.823-21.743-6.823-13.313 0-23.663 6.468-30.762 19.226-3.394 6.1-5.962 13.931-7.63 23.274-1.636 9.15-2.465 20.048-2.465 32.394 0 2.883.047 5.624.138 8.15.094 2.565.238 5.21.43 7.863l.562 7.806zm40.03-122.094c11.254 0 21.315 1.979 29.903 5.881 8.516 3.87 15.87 9.768 21.854 17.53 6.046 7.84 10.662 18.047 13.719 30.338 3.11 12.505 4.687 27.486 4.687 44.526 0 16.822-1.757 31.662-5.225 44.108-3.43 12.322-8.298 22.677-14.465 30.775-6.082 7.992-13.484 14.04-22.001 17.977-8.585 3.966-18.26 5.977-28.753 5.977-11.323 0-21.408-2.085-29.975-6.198-8.506-4.084-15.81-10.314-21.712-18.518-5.99-8.327-10.56-18.732-13.58-30.926-3.062-12.364-4.615-26.896-4.615-43.195 0-16.643 1.757-31.388 5.22-43.827 3.431-12.315 8.294-22.617 14.453-30.618 6.09-7.911 13.455-13.92 21.892-17.86 8.485-3.962 18.107-5.97 28.598-5.97z" fill="#0D47A1"/>
        <path d="M369.73 118.865h54.673V49.108l-54.674 69.757zm54.673 80.284v-54.82h-85.179v-22.503L427.394 4.73h27.254v114.135h33.734v25.465h-33.734v54.819h-30.245z" fill="#FFF"/>
        <path d="M373.603 116.98l48.914-62.41v62.41h-48.914zm82.93-114.136h-30.08L337.34 121.196v25.02h85.178v54.818h34.016v-54.819h33.735V116.98h-33.735V2.844zM365.855 120.75h60.434V43.646l-6.74 8.598-48.914 62.409-4.78 6.097zM452.762 6.616V120.75h33.735v21.694h-33.734v54.819h-26.474V142.445H341.11v-19.988L428.334 6.616h24.428z" fill="#0D47A1"/>
    </g>
</svg>
