<svg xmlns="http://www.w3.org/2000/svg" width="270.289" height="270.289" viewBox="0 0 270.289 270.289">
    <path fill="#0D47A1" d="M135.145 13.102c67.401 0 122.042 54.64 122.042 122.042s-54.641 122.042-122.042 122.042c-67.402 0-122.042-54.64-122.042-122.042S67.742 13.102 135.145 13.102m0-13.102c-18.239 0-35.938 3.575-52.608 10.625a135.163 135.163 0 0 0-22.961 12.462C52.421 27.92 45.695 33.47 39.583 39.583S27.921 52.421 23.088 59.574a135.2 135.2 0 0 0-12.462 22.961C3.575 99.205 0 116.905 0 135.144c0 18.238 3.575 35.938 10.626 52.608a135.2 135.2 0 0 0 12.462 22.961c4.833 7.153 10.382 13.88 16.495 19.992s12.838 11.662 19.992 16.494a135.136 135.136 0 0 0 22.961 12.463c16.67 7.051 34.37 10.626 52.608 10.626s35.938-3.575 52.608-10.626a135.136 135.136 0 0 0 22.961-12.463c7.153-4.832 13.88-10.382 19.992-16.494s11.661-12.839 16.494-19.992a135.168 135.168 0 0 0 12.463-22.961c7.051-16.67 10.626-34.37 10.626-52.608 0-18.239-3.575-35.939-10.626-52.608a135.168 135.168 0 0 0-12.463-22.961c-4.833-7.153-10.382-13.879-16.494-19.992s-12.839-11.662-19.992-16.495a135.2 135.2 0 0 0-22.961-12.462C171.083 3.575 153.383 0 135.145 0z"/>
    <g fill="#0D47A1">
        <path d="M135.446 157.964l-.747-1.056c-6.011-1.348-12.273-2.047-17.645-2.047-8.181 0-16.093 1.291-23.517 3.838-16.593 5.692-30.71 15.821-40.436 24.229l-6.727-72.542a52.074 52.074 0 0 1 6.275-5.47c7.045-5.219 14.792-8.376 23.027-9.382a25.753 25.753 0 0 1 3.129-.188c6.947 0 12.95 2.663 15.372 3.904l-5.63-8.011-3.052-4.342a38.822 38.822 0 0 0-6.689-.595 34.94 34.94 0 0 0-4.227.254C50.387 89.515 37.01 107.34 37.01 107.34l8.847 95.412s21.421-25.482 50.615-35.497c7.035-2.413 14.059-3.349 20.583-3.349 7.835 0 14.954 1.348 20.525 3.104.512-4.585-.301-6.627-2.134-9.046zM165.805 71.939h-37.583s-13.042-.272-21.831 9.187l.795.985 4.611 6.434c1.881-2.546 4.403-4.29 7.618-5.707 4.442-1.958 8.575-1.899 8.865-1.899h34.251l60.133 49.018c-10.256.01-21.055-.108-26.976-.108-21.645 0-34.976 8.293-42.869 16.557l.306.402c.54.719 2.63 3.746 4.126 8.272 6.71-8.203 18.395-16.142 38.448-16.142h52.255l-82.149-66.999z"/>
        <path d="M157.786 183.919c-3.794-2.526-5-7.161-3.688-14.171 2.105-11.259-3.856-19.37-4.396-20.075l-46.326-65.366c-1.561 2.863-5.561 4.619-11.609 3.578l47.471 67.521.038.053c3.149 4.155 3.826 7.861 2.685 14.684-2.157 12.89 2.561 19.039 6.899 21.93l3.494 2.328 1.567-6.296 12.469 1.547-8.604-5.733z"/>
    </g>
</svg>
