<svg xmlns="http://www.w3.org/2000/svg" width="200" height="200" viewBox="50 50 200 200">
    <circle fill="#FFF" cx="150" cy="150" r="100"/>
    <path fill="#0D47A1" d="M150 68.639c44.934 0 81.361 36.427 81.361 81.361S194.934 231.361 150 231.361c-44.935 0-81.361-36.427-81.361-81.361S105.065 68.639 150 68.639m0-8.735c-12.16 0-23.958 2.384-35.072 7.083a90.138 90.138 0 0 0-28.636 19.305 90.167 90.167 0 0 0-19.305 28.635c-4.7 11.113-7.084 22.913-7.084 35.072 0 12.158 2.384 23.958 7.084 35.072a90.176 90.176 0 0 0 19.305 28.636 90.769 90.769 0 0 0 13.328 10.996 90.143 90.143 0 0 0 15.308 8.309c11.113 4.7 22.913 7.083 35.072 7.083 12.159 0 23.958-2.383 35.071-7.083a90.143 90.143 0 0 0 15.308-8.309 90.664 90.664 0 0 0 13.328-10.996 90.758 90.758 0 0 0 10.996-13.328 90.073 90.073 0 0 0 8.309-15.308c4.7-11.113 7.085-22.914 7.085-35.072 0-12.16-2.385-23.959-7.085-35.072a90.026 90.026 0 0 0-8.309-15.307 90.705 90.705 0 0 0-10.996-13.328 90.66 90.66 0 0 0-13.328-10.997 90.1 90.1 0 0 0-15.308-8.308c-11.113-4.699-22.912-7.083-35.071-7.083z"/>
    <g fill="#F9A825">
        <path d="M150.201 165.214l-.498-.705c-4.008-.898-8.182-1.364-11.764-1.364-5.454 0-10.729.86-15.678 2.559-11.062 3.795-20.474 10.548-26.958 16.153l-4.485-48.362a34.594 34.594 0 0 1 4.184-3.646c4.696-3.479 9.861-5.584 15.352-6.255.678-.083 1.38-.125 2.086-.125 4.631 0 8.633 1.775 10.248 2.603l-3.754-5.341-2.034-2.895a25.852 25.852 0 0 0-4.459-.396c-.918 0-1.861.052-2.818.169-16.128 1.972-25.046 13.854-25.046 13.854l5.897 63.608s14.281-16.987 33.744-23.664c4.69-1.608 9.373-2.233 13.722-2.233 5.223 0 9.969.898 13.683 2.07.342-3.056-.2-4.418-1.422-6.03zM170.44 107.863h-25.056s-8.695-.181-14.554 6.125l.53.657 3.074 4.29c1.254-1.697 2.936-2.86 5.079-3.805 2.961-1.306 5.717-1.266 5.91-1.266h22.833l40.09 32.679c-6.838.007-14.037-.072-17.984-.072-14.43 0-23.318 5.529-28.58 11.038l.205.269c.359.479 1.752 2.497 2.75 5.514 4.474-5.469 12.264-10.761 25.633-10.761h34.836l-54.766-44.668z"/>
    </g>
    <path fill="#D32F2F" d="M165.095 182.517c-2.529-1.684-3.333-4.773-2.459-9.447 1.403-7.506-2.57-12.913-2.93-13.383l-30.885-43.578c-1.041 1.908-3.708 3.079-7.739 2.385l31.647 45.014.025.035c2.1 2.771 2.551 5.241 1.789 9.79-1.438 8.593 1.708 12.692 4.6 14.62l2.33 1.552 1.045-4.197 8.312 1.031-5.735-3.822z"/>
</svg>
