<svg xmlns="http://www.w3.org/2000/svg" width="1000" height="361.893" viewBox="0 0 1000 361.893">
    <g fill="#FFF">
        <path d="M590.496 298.448l-1.059-1.496c-8.515-1.908-17.386-2.899-24.995-2.899-11.589 0-22.797 1.829-33.315 5.438-23.505 8.062-43.503 22.412-57.28 34.323l-9.529-102.764a73.448 73.448 0 0 1 8.889-7.748c9.98-7.394 20.955-11.865 32.619-13.292a36.717 36.717 0 0 1 4.434-.266c9.841 0 18.345 3.772 21.774 5.531l-7.976-11.348-4.322-6.152a55.104 55.104 0 0 0-9.477-.842c-1.952 0-3.954.111-5.988.36-34.271 4.189-53.221 29.439-53.221 29.439l12.534 135.159s30.345-36.099 71.701-50.284c9.966-3.419 19.916-4.744 29.159-4.744 11.099 0 21.184 1.91 29.076 4.398.724-6.493-.428-9.386-3.024-12.813zM633.501 175.946h-53.239s-18.475-.065-30.926 13.332l1.127 1.556 6.531 9.196c2.664-3.605 6.237-6.731 10.791-8.739 6.293-2.774 12.147-3.345 12.56-3.345h48.52l85.184 70.134c-14.528.013-29.826.192-38.214.192-30.661 0-49.547 11.924-60.729 23.631l.433.652c.765 1.019 3.727 5.231 5.847 11.643 9.504-11.62 26.056-22.956 54.464-22.956 19.217 0 74.025.014 74.025.014l-116.374-95.31z"/>
        <path d="M622.142 335.216c-5.373-3.578-7.082-10.145-5.226-20.074 2.983-15.949-5.463-27.44-6.227-28.438l-65.624-92.596c-2.212 4.054-7.877 6.542-16.446 5.067l67.247 95.65.055.074c4.461 5.888 5.421 11.137 3.803 20.8-3.056 18.261 3.628 26.973 9.773 31.066l4.949 3.298 2.222-8.919 17.663 2.192-12.189-8.12z"/>
        <g>
            <path d="M0 13.07c10.747-2.614 24.688-4.066 39.21-4.066 24.398 0 40.373 5.228 51.41 15.975 7.842 8.132 11.908 18.588 11.908 32.24 0 20.041-14.232 36.887-33.692 43.857v.581c16.265 3.776 41.244 18.008 41.244 49.957 0 15.975-5.519 28.174-14.522 37.468-12.78 13.361-33.982 18.589-61.575 18.589-15.104 0-26.431-.871-33.982-1.742V13.07zm13.651 83.359h28.755c28.173 0 45.891-16.556 45.891-38.339 0-27.592-20.622-37.468-49.667-37.468-13.07 0-20.622.871-24.979 2.033v73.774zm0 98.173c5.809 1.161 13.942 1.451 24.107 1.451 29.916 0 58.09-10.746 58.09-44.147 0-30.788-26.431-44.148-57.509-44.148H13.651v86.844zM157.131 27.012c0 6.39-4.357 11.909-11.618 11.909-6.39 0-10.747-5.519-10.747-11.909 0-6.39 4.938-12.199 11.328-12.199 6.68 0 11.037 5.519 11.037 12.199zm-18.008 179.207V66.804h13.651v139.415h-13.651zM192.566 0h13.651v92.654h.581c9.294-18.008 26.431-29.045 51.12-29.045 35.144 0 59.542 29.335 59.542 71.451 0 49.667-31.659 74.355-62.156 74.355-22.365 0-38.92-9.004-49.958-28.464h-.581l-.871 25.269h-12.49c.581-9.875 1.162-22.074 1.162-32.53V0zm13.651 152.486c0 3.195.581 6.68 1.162 10.166 6.099 21.203 24.107 35.144 45.891 35.144 31.95 0 50.248-26.14 50.248-62.446 0-31.95-17.427-60.414-49.086-60.414-20.332 0-39.792 14.232-46.472 37.468-.871 3.485-1.743 7.261-1.743 12.199v27.883zM345.63 0h13.651v206.219H345.63V0zM726.11 27.012c0 6.39-4.357 11.909-11.618 11.909-6.391 0-10.747-5.519-10.747-11.909 0-6.39 4.938-12.199 11.328-12.199 6.679 0 11.037 5.519 11.037 12.199zm-18.009 179.207V66.804h13.651v139.415h-13.651zM761.544 108.628c0-13.941-.581-28.464-1.162-41.824h12.78l.581 28.173h.581c6.099-17.427 20.621-31.369 39.791-31.369 1.743 0 3.776.291 5.519.581v13.36c-2.033-.581-4.066-.581-6.681-.581-19.17 0-32.82 16.556-36.596 38.92-.581 4.066-1.162 8.714-1.162 13.361v76.969h-13.651v-97.59zM834.157 187.921c7.552 4.647 18.879 9.585 31.369 9.585 22.073 0 32.53-11.908 32.53-26.431 0-15.394-9.295-23.526-29.336-31.659-22.945-8.713-35.435-21.203-35.435-38.049 0-20.041 15.685-37.758 42.986-37.758 12.78 0 23.526 3.776 30.788 8.713L901.54 83.65c-4.647-3.485-13.651-8.423-27.593-8.423-17.718 0-27.012 11.327-27.012 24.107 0 14.522 9.875 20.912 28.754 28.754 22.655 8.713 36.016 20.041 36.016 41.244 0 23.816-18.588 40.082-47.053 40.082-13.65 0-26.141-4.066-35.435-9.875l4.94-11.618zM960.208 36.016v30.788H1000v11.037h-39.791v90.62c0 17.717 5.519 29.045 20.331 29.045 7.262 0 12.489-1.162 15.976-2.324l1.742 10.747c-4.647 2.033-11.037 3.485-19.46 3.485-10.166 0-18.589-3.485-23.817-10.166-6.39-7.261-8.713-18.879-8.713-33.111V77.841h-23.526V66.804h23.526v-25.56l13.94-5.228zM604.121 163.946v-52h76v-12h-76v-78h83v-12h-97v154zM469.959 196.363c-4.284.536-9.175.796-14.832.796-28.754 0-53.152-17.213-53.152-62.213h102.819c.581-2 .581-4.591.581-8.367 0-20.041-8.713-63-54.314-63-36.016 0-62.737 29.06-62.737 75.531 0 40.24 24.117 69.268 62.981 70.268a100.91 100.91 0 0 1 18.654-13.015zM449.318 74.86c33.692 0 41.824 30.086 41.534 49.086h-88.006c2.323-21 15.684-49.086 46.472-49.086z"/>
        </g>
    </g>
</svg>
