<svg xmlns="http://www.w3.org/2000/svg" width="200" height="200" viewBox="0 0 200 200">
    <path fill="#FFF" d="M100 9.695c49.874 0 90.305 40.431 90.305 90.305S149.874 190.304 100 190.304 9.695 149.874 9.695 100 50.126 9.695 100 9.695M100 0C86.504 0 73.407 2.645 61.072 7.862a99.953 99.953 0 0 0-16.99 9.222A100.617 100.617 0 0 0 29.29 29.289 100.027 100.027 0 0 0 7.863 61.072C2.646 73.407 0 86.504 0 100c0 13.495 2.646 26.593 7.863 38.928a99.98 99.98 0 0 0 9.221 16.99 100.684 100.684 0 0 0 12.206 14.793c4.522 4.522 9.5 8.629 14.792 12.204a100.028 100.028 0 0 0 16.99 9.223C73.407 197.354 86.504 200 100 200c13.495 0 26.593-2.646 38.928-7.862a99.873 99.873 0 0 0 16.989-9.223 100.627 100.627 0 0 0 14.794-12.204c4.522-4.523 8.628-9.5 12.204-14.793a100.098 100.098 0 0 0 9.223-16.99C197.354 126.592 200 113.495 200 100c0-13.496-2.646-26.593-7.862-38.927a100.037 100.037 0 0 0-9.223-16.991 100.674 100.674 0 0 0-12.204-14.792 100.633 100.633 0 0 0-14.794-12.205 100.014 100.014 0 0 0-16.989-9.222C126.593 2.645 113.495 0 100 0z"/>
    <g fill="#FFF">
        <path d="M100.224 116.885l-.553-.781c-4.448-.997-9.081-1.515-13.056-1.515-6.053 0-11.908.956-17.401 2.84-12.278 4.213-22.725 11.707-29.921 17.929l-4.978-53.677a38.489 38.489 0 0 1 4.644-4.047c5.213-3.862 10.945-6.198 17.039-6.942a19.152 19.152 0 0 1 2.315-.139c5.141 0 9.583 1.971 11.375 2.889l-4.167-5.927-2.259-3.215a28.789 28.789 0 0 0-4.95-.44c-1.02 0-2.065.058-3.127.188-17.901 2.188-27.799 15.377-27.799 15.377l6.546 70.6s15.851-18.856 37.453-26.267c5.206-1.785 10.403-2.478 15.231-2.478 5.797 0 11.065.997 15.188 2.297.377-3.391-.224-4.902-1.58-6.692zM122.687 52.794H94.878s-9.65.017-16.154 7.016l.588.838 3.412 4.815c1.392-1.884 3.258-3.194 5.637-4.243 3.287-1.449 6.345-1.426 6.56-1.426h25.343l44.495 36.319c-7.589.007-15.579-.056-19.96-.056-16.017 0-25.881 6.149-31.722 12.263l.227.304c.399.532 1.946 2.768 3.053 6.117 4.965-6.069 13.611-11.947 28.45-11.947h38.666l-60.786-50z"/>
        <path d="M116.754 136.091c-2.808-1.87-3.7-5.299-2.729-10.486 1.558-8.331-2.854-14.333-3.253-14.854L76.493 62.383c-1.155 2.118-4.115 3.417-8.59 2.647l35.126 49.962.028.039c2.33 3.075 2.831 5.817 1.986 10.865-1.597 9.538 1.895 14.088 5.105 16.227l2.585 1.723 1.16-4.658 9.226 1.145-6.365-4.242z"/>
    </g>
</svg>
