<svg width="200" height="200" viewBox="0 0 200 200" xmlns="http://www.w3.org/2000/svg">
    <title>
        Blue Mini
    </title>
    <g fill="#0D47A1" fill-rule="evenodd">
        <path d="M100 190.406c49.93 0 90.406-40.476 90.406-90.406 0-49.93-40.476-90.406-90.406-90.406C50.07 9.594 9.594 50.07 9.594 100c0 49.93 40.476 90.406 90.406 90.406zm0 9.594C44.772 200 0 155.228 0 100S44.772 0 100 0s100 44.772 100 100-44.772 100-100 100z"/>
        <path d="M101.43 117.093l-.552-.78c-4.436-.993-9.057-1.51-13.022-1.51-6.038 0-11.877.953-17.356 2.832-12.245 4.202-22.665 11.677-29.842 17.882L35.694 81.98a38.435 38.435 0 0 1 4.63-4.036c5.2-3.852 10.918-6.182 16.995-6.925.75-.091 1.527-.138 2.309-.138 5.128 0 9.558 1.965 11.345 2.881l-4.155-5.912-2.253-3.204a28.653 28.653 0 0 0-4.937-.44c-1.017 0-2.06.058-3.12.188-17.853 2.183-27.726 15.337-27.726 15.337l6.53 70.415s15.809-18.806 37.354-26.197c5.192-1.78 10.375-2.472 15.19-2.472 5.783 0 11.037.995 15.15 2.292.376-3.384-.224-4.89-1.576-6.676M123.553 53.875H95.816s-9.624-.2-16.111 6.78l.587.727 3.403 4.748c1.388-1.878 3.25-3.166 5.622-4.211 3.279-1.446 6.328-1.402 6.543-1.402H121.138l44.377 36.176c-7.568.007-15.538-.08-19.908-.08-15.974 0-25.812 6.12-31.637 12.22l.225.296c.398.53 1.94 2.765 3.045 6.106 4.952-6.055 13.575-11.913 28.375-11.913h38.564l-60.626-49.447z"/>
        <path d="M117.357 136.245c-2.8-1.864-3.69-5.285-2.722-10.458 1.554-8.31-2.846-14.295-3.244-14.816l-34.189-48.24c-1.152 2.113-4.104 3.408-8.567 2.64l35.034 49.831.028.04c2.324 3.066 2.823 5.8 1.981 10.836-1.592 9.512 1.89 14.051 5.092 16.184l2.578 1.718 1.158-4.646 9.201 1.141-6.35-4.23z"/>
    </g>
</svg>
