<svg width="1000" height="361" viewBox="0 0 1000 361" xmlns="http://www.w3.org/2000/svg">
    <title>
        Artboard 1
    </title>
    <g fill="none" fill-rule="evenodd">
        <path d="M590.445 297.502l-1.059-1.496c-8.514-1.908-17.385-2.9-24.995-2.9-11.589 0-22.797 1.83-33.315 5.438-23.505 8.062-43.503 22.412-57.28 34.323l-9.529-102.763a73.36 73.36 0 0 1 8.89-7.748c9.98-7.394 20.954-11.866 32.618-13.292a36.717 36.717 0 0 1 4.434-.266c9.84 0 18.344 3.772 21.774 5.53l-7.976-11.347-4.322-6.152a55.192 55.192 0 0 0-9.476-.842c-1.952 0-3.954.112-5.989.36-34.27 4.19-53.22 29.44-53.22 29.44l12.533 135.159s30.346-36.098 71.701-50.284c9.966-3.42 19.916-4.744 29.16-4.744 11.098 0 21.183 1.91 29.075 4.398.724-6.495-.427-9.387-3.024-12.814M633.451 175h-53.239s-18.475-.065-30.926 13.332l1.127 1.556 6.531 9.196c2.664-3.605 6.237-6.731 10.791-8.74 6.293-2.774 12.148-3.344 12.56-3.344h48.519l85.184 70.134c-14.528.012-29.826.192-38.214.192-30.66 0-49.547 11.924-60.729 23.63l.433.653c.765 1.019 3.727 5.232 5.847 11.643 9.504-11.62 26.055-22.956 54.464-22.956 19.216 0 74.025.014 74.025.014L633.451 175z" fill="#F9A825"/>
        <path d="M622.092 334.27c-5.373-3.579-7.082-10.146-5.226-20.075 2.984-15.949-5.462-27.44-6.226-28.439l-65.624-92.595c-2.212 4.053-7.877 6.542-16.446 5.067l67.247 95.65.054.075c4.46 5.887 5.42 11.136 3.803 20.8-3.056 18.26 3.628 26.972 9.773 31.066l4.95 3.298 2.22-8.919 17.664 2.192-12.19-8.12z" fill="#D32F2F"/>
        <path d="M13.65 194.601c5.81 1.161 13.943 1.452 24.108 1.452 29.916 0 58.09-10.746 58.09-44.148 0-30.787-26.431-44.148-57.51-44.148H13.652V194.6zm0-98.171h28.756c28.173 0 45.89-16.556 45.89-38.34 0-27.593-20.622-37.468-49.666-37.468-13.07 0-20.622.872-24.98 2.034v73.773zM0 13.07c10.747-2.614 24.688-4.066 39.21-4.066 24.399 0 40.373 5.228 51.41 15.975 7.842 8.133 11.908 18.589 11.908 32.24 0 20.04-14.231 36.887-33.691 43.857v.582c16.265 3.775 41.243 18.007 41.243 49.956 0 15.975-5.518 28.174-14.522 37.468-12.78 13.362-33.983 18.589-61.575 18.589-15.104 0-26.432-.871-33.983-1.742V13.07zm139.123 193.149h13.651V66.804h-13.651v139.415zm18.008-179.207c0 6.39-4.357 11.908-11.618 11.908-6.39 0-10.747-5.518-10.747-11.908s4.938-12.199 11.328-12.199c6.68 0 11.037 5.518 11.037 12.199zm49.086 125.474c0 3.195.58 6.68 1.162 10.166 6.099 21.202 24.107 35.144 45.89 35.144 31.95 0 50.249-26.14 50.249-62.447 0-31.949-17.427-60.413-49.086-60.413-20.332 0-39.792 14.232-46.472 37.467-.871 3.486-1.743 7.262-1.743 12.2v27.883zM192.566 0h13.65v92.653h.582c9.294-18.008 26.43-29.045 51.12-29.045 35.144 0 59.54 29.336 59.54 71.451 0 49.666-31.658 74.355-62.155 74.355-22.364 0-38.92-9.004-49.957-28.464h-.581l-.871 25.268h-12.49c.58-9.875 1.162-22.074 1.162-32.53V0zM345.63 206.219h13.651V0H345.63v206.219zm362.471 0h13.651V66.804h-13.651v139.415zM726.11 27.012c0 6.39-4.358 11.908-11.618 11.908-6.391 0-10.747-5.518-10.747-11.908s4.937-12.199 11.328-12.199c6.679 0 11.037 5.518 11.037 12.199zm35.434 81.616c0-13.941-.58-28.464-1.162-41.824h12.78l.581 28.173h.581c6.1-17.427 20.621-31.37 39.791-31.37 1.743 0 3.777.292 5.52.583v13.36c-2.034-.581-4.068-.581-6.682-.581-19.17 0-32.82 16.556-36.596 38.92-.58 4.067-1.162 8.714-1.162 13.36v76.97h-13.65v-97.591zm72.613 79.292c7.552 4.648 18.879 9.586 31.369 9.586 22.073 0 32.53-11.908 32.53-26.431 0-15.394-9.295-23.527-29.336-31.66-22.945-8.713-35.434-21.202-35.434-38.048 0-20.041 15.684-37.76 42.986-37.76 12.78 0 23.527 3.777 30.788 8.715l-5.518 11.328c-4.648-3.486-13.652-8.423-27.593-8.423-17.718 0-27.012 11.327-27.012 24.107 0 14.523 9.875 20.912 28.754 28.754 22.655 8.714 36.016 20.04 36.016 41.244 0 23.817-18.588 40.082-47.053 40.082-13.65 0-26.141-4.066-35.434-9.875l4.937-11.618zM960.208 36.016v30.788H1000V77.84h-39.792v90.62c0 17.717 5.52 29.045 20.332 29.045 7.262 0 12.489-1.162 15.976-2.324l1.742 10.747c-4.649 2.033-11.038 3.485-19.46 3.485-10.167 0-18.59-3.485-23.818-10.166-6.39-7.26-8.712-18.878-8.712-33.111V77.84H922.74V66.804h23.528v-25.56l13.94-5.228zM604.12 163.946v-52h76v-12h-76v-78h83v-12h-97v154h14zM449.318 74.86c33.692 0 41.824 30.086 41.534 49.086h-88.006c2.324-21 15.684-49.086 46.472-49.086m20.64 121.503c-4.283.536-9.174.796-14.831.796-28.754 0-53.152-17.213-53.152-62.213h102.819c.58-2 .58-4.59.58-8.367 0-20.04-8.713-62.999-54.313-62.999-36.016 0-62.738 29.06-62.738 75.531 0 40.24 24.118 69.268 62.98 70.268a100.941 100.941 0 0 1 18.656-13.016" fill="#0D47A1"/>
    </g>
</svg>
